<svg width="20" height="20" viewBox="0 0 20 20" fill="none" xmlns="http://www.w3.org/2000/svg">
<path d="M19.7893 4.07797L15.8832 0.171641C15.7734 0.0617188 15.6243 0 15.4689 0H6.48438C5.51512 0 4.72656 0.788555 4.72656 1.75781V9.48586C2.09352 9.77828 0.0390625 12.0168 0.0390625 14.7266C0.0390625 17.6343 2.40473 20 5.3125 20H18.2031C19.1724 20 19.9609 19.2114 19.9609 18.2422V4.4923C19.9609 4.33687 19.8992 4.18789 19.7893 4.07797V4.07797ZM16.0547 2.00051L17.3277 3.27359L17.9604 3.90625H16.0547V2.00051ZM1.21094 14.7266C1.21094 12.465 3.0509 10.625 5.3125 10.625C7.5741 10.625 9.41406 12.465 9.41406 14.7266C9.41406 16.9882 7.5741 18.8281 5.3125 18.8281C3.0509 18.8281 1.21094 16.9882 1.21094 14.7266ZM18.2031 18.8281H8.62301C9.67625 17.9764 10.396 16.7282 10.5532 15.3125H16.6406C16.9642 15.3125 17.2266 15.0502 17.2266 14.7266C17.2266 14.403 16.9642 14.1406 16.6406 14.1406H10.5532C10.4577 13.2805 10.1546 12.4821 9.69508 11.7969H16.6406C16.9642 11.7969 17.2266 11.5345 17.2266 11.2109C17.2266 10.8873 16.9642 10.625 16.6406 10.625H8.62301C7.86047 10.0084 6.92336 9.59969 5.89844 9.48586V1.75781C5.89844 1.43473 6.16129 1.17188 6.48438 1.17188H14.8828V4.49219C14.8828 4.81578 15.1452 5.07812 15.4688 5.07812H18.7891V18.2422C18.7891 18.5653 18.5262 18.8281 18.2031 18.8281V18.8281Z" fill="#3F4156"/>
<path d="M5.36 11.64C5.73867 11.64 6.07467 11.696 6.368 11.808C6.66133 11.92 6.89067 12.0853 7.056 12.304C7.22133 12.5173 7.304 12.7813 7.304 13.096C7.304 13.416 7.23467 13.68 7.096 13.888C6.96267 14.0907 6.78133 14.2453 6.552 14.352C6.32267 14.4533 6.06933 14.52 5.792 14.552L5.736 15.304H4.736L4.744 14.096C5.10133 14.0533 5.37867 13.9973 5.576 13.928C5.77867 13.8533 5.92 13.76 6 13.648C6.08533 13.536 6.128 13.4027 6.128 13.248C6.128 13.0987 6.096 12.9733 6.032 12.872C5.97333 12.7707 5.88267 12.6933 5.76 12.64C5.63733 12.5867 5.48 12.56 5.288 12.56C5.01067 12.56 4.78933 12.64 4.624 12.8C4.45867 12.9547 4.35733 13.176 4.32 13.464L3.28 13.064C3.344 12.7867 3.46133 12.5413 3.632 12.328C3.80267 12.1093 4.02933 11.9413 4.312 11.824C4.6 11.7013 4.94933 11.64 5.36 11.64ZM5.248 15.84C5.456 15.84 5.62133 15.896 5.744 16.008C5.86667 16.12 5.928 16.2693 5.928 16.456C5.928 16.648 5.86667 16.8 5.744 16.912C5.62133 17.0187 5.456 17.072 5.248 17.072C5.04 17.072 4.87467 17.0187 4.752 16.912C4.62933 16.8 4.568 16.648 4.568 16.456C4.568 16.2693 4.62933 16.12 4.752 16.008C4.87467 15.896 5.04 15.84 5.248 15.84Z" fill="#3F4156"/>
<path d="M16.6406 7.10938H8.04688C7.72328 7.10938 7.46094 7.37172 7.46094 7.69531C7.46094 8.01891 7.72328 8.28125 8.04688 8.28125H16.6406C16.9642 8.28125 17.2266 8.01891 17.2266 7.69531C17.2266 7.37172 16.9642 7.10938 16.6406 7.10938Z" fill="#3F4156"/>
</svg>
