<svg width="20" height="20" viewBox="0 0 20 20" fill="none" xmlns="http://www.w3.org/2000/svg">
<path d="M13.9062 13.2812H12.1484V12.7332C12.6254 12.4724 13.0501 12.1276 13.4026 11.7188H14.6875C15.8721 11.7188 16.8359 10.755 16.8359 9.57031V7.61719C16.8359 6.8534 16.346 6.20258 15.6641 5.96078V5.66406C15.6641 2.5409 13.1232 0 10 0C6.87684 0 4.33594 2.5409 4.33594 5.66406V5.96016C3.65395 6.20203 3.16406 6.85332 3.16406 7.61719C3.16406 8.58645 3.95262 9.375 4.92188 9.375H5.54602C5.7357 10.8248 6.61934 12.0593 7.85156 12.7332V13.2812H6.09375C3.40137 13.2812 1.21094 15.4717 1.21094 18.1641V19.4141C1.21094 19.7377 1.47328 20 1.79688 20H18.2031C18.5267 20 18.7891 19.7377 18.7891 19.4141V18.1641C18.7891 15.4717 16.5986 13.2812 13.9062 13.2812ZM15.6641 9.57031C15.6641 10.1088 15.226 10.5469 14.6875 10.5469H14.1338C14.291 10.1787 14.4003 9.78551 14.454 9.375H15.6641V9.57031ZM15.6641 7.61719V8.20312H14.4922V7.03125H15.0781C15.4012 7.03125 15.6641 7.2941 15.6641 7.61719ZM5.50781 8.20312H4.92188C4.59879 8.20312 4.33594 7.94027 4.33594 7.61719C4.33594 7.2941 4.59879 7.03125 4.92188 7.03125H5.50781V8.20312ZM5.50781 5.85938V5.66406C5.50781 3.18707 7.52301 1.17188 10 1.17188C12.477 1.17188 14.4922 3.18707 14.4922 5.66406V5.85938H14.1118L12.3191 4.42527C12.086 4.23875 11.7499 4.25738 11.5388 4.46848C10.6419 5.36539 9.44938 5.85938 8.18094 5.85938H5.50781ZM6.67969 8.78906V7.03125H8.18094C9.58539 7.03125 10.9153 6.54547 11.9786 5.65352L13.3203 6.72691V8.78906C13.3203 9.4343 13.1347 10.0367 12.8149 10.5469H10.3906C10.067 10.5469 9.80469 10.8092 9.80469 11.1328C9.80469 11.4564 10.067 11.7188 10.3906 11.7188H11.5605C11.095 11.9677 10.5638 12.1094 10 12.1094C8.16918 12.1094 6.67969 10.6199 6.67969 8.78906V8.78906ZM10.9766 13.174V13.8672C10.9766 14.4057 10.5385 14.8438 10 14.8438C9.46152 14.8438 9.02344 14.4057 9.02344 13.8672V13.174C9.33797 13.244 9.66469 13.2812 10 13.2812C10.3353 13.2812 10.662 13.244 10.9766 13.174ZM17.6172 18.8281H2.38281V18.1641C2.38281 16.1179 4.04754 14.4531 6.09375 14.4531H7.93344C8.18918 15.3538 9.01848 16.0156 10 16.0156C10.9815 16.0156 11.8108 15.3538 12.0666 14.4531H13.9062C15.9525 14.4531 17.6172 16.1179 17.6172 18.1641V18.8281Z" fill="#3F4156"/>
</svg>
