<svg width="39" height="48" viewBox="0 0 39 48" fill="none" xmlns="http://www.w3.org/2000/svg">
<path d="M9.2309 10.1605C9.05658 10.3348 8.95624 10.5769 8.95624 10.8234C8.95624 11.0709 9.05658 11.3119 9.2309 11.4862C9.40521 11.6605 9.64728 11.7609 9.89374 11.7609C10.1413 11.7609 10.3823 11.6605 10.5566 11.4862C10.7309 11.3119 10.8312 11.0709 10.8312 10.8234C10.8312 10.5769 10.7309 10.3348 10.5566 10.1605C10.3823 9.98621 10.1413 9.88586 9.89374 9.88586C9.64728 9.88586 9.40521 9.98621 9.2309 10.1605Z" fill="white"/>
<path d="M35.3641 9.88623H13.6437C13.1259 9.88623 12.7062 10.3059 12.7062 10.8237C12.7062 11.3416 13.1259 11.7612 13.6437 11.7612H35.3641C36.1558 11.7612 36.8 12.405 36.8 13.1968V32.4375H30.5693C30.0515 32.4375 29.6318 32.8572 29.6318 33.375C29.6318 33.8928 30.0515 34.3125 30.5693 34.3125H36.8V34.7516C36.8 35.5433 36.1558 36.1875 35.3641 36.1875H7.98395C7.76312 36.1875 7.54926 36.2655 7.38007 36.408L2.67499 40.37V13.1968C2.67499 12.405 3.31915 11.7612 4.1109 11.7612H6.1441C6.66156 11.7612 7.0816 11.3416 7.0816 10.8237C7.0816 10.3059 6.66156 9.88623 6.1441 9.88623H4.1109C2.28534 9.88623 0.799988 11.3712 0.799988 13.1968V42.3853C0.799988 42.75 1.01129 43.0814 1.34198 43.2352C1.46832 43.2938 1.60309 43.3228 1.73712 43.3228C1.95428 43.3228 2.16888 43.2473 2.34137 43.1023L8.32599 38.0625H35.3641C37.1896 38.0625 38.675 36.5771 38.675 34.7516V13.1968C38.675 11.3712 37.1896 9.88623 35.3641 9.88623Z" fill="white"/>
<path d="M19.7375 6.55957C20.2553 6.55957 20.675 6.13989 20.675 5.62207V0.9375C20.675 0.419678 20.2553 0 19.7375 0C19.2197 0 18.8 0.419678 18.8 0.9375V5.62207C18.8 6.13989 19.2197 6.55957 19.7375 6.55957Z" fill="white"/>
<path d="M26.8037 6.94006C27.0439 6.94006 27.2834 6.84851 27.4665 6.66541L30.7441 3.38818C31.1103 3.02197 31.1103 2.42834 30.7441 2.06213C30.3779 1.69592 29.7842 1.69592 29.418 2.06213L26.1408 5.33936C25.7746 5.70557 25.7746 6.29919 26.1408 6.66541C26.3239 6.84851 26.5638 6.94006 26.8037 6.94006Z" fill="white"/>
<path d="M12.0085 6.65918C12.1916 6.84229 12.4315 6.93384 12.6713 6.93384C12.9112 6.93384 13.1511 6.84229 13.3342 6.65918C13.7004 6.29297 13.7004 5.69934 13.3342 5.33313L10.0566 2.05591C9.69073 1.6897 9.09711 1.6897 8.7309 2.05591C8.36469 2.42212 8.36469 3.01538 8.7309 3.38159L12.0085 6.65918Z" fill="white"/>
<path d="M19.7375 41.4404C19.2197 41.4404 18.8 41.8601 18.8 42.3779V47.0625C18.8 47.5803 19.2197 48 19.7375 48C20.2553 48 20.675 47.5803 20.675 47.0625V42.3779C20.675 41.8601 20.2553 41.4404 19.7375 41.4404Z" fill="white"/>
<path d="M27.4665 41.3346C27.1003 40.9684 26.507 40.9684 26.1408 41.3346C25.7746 41.7008 25.7746 42.2944 26.1408 42.6606L29.418 45.9379C29.6011 46.121 29.841 46.2125 30.0809 46.2125C30.3211 46.2125 30.561 46.121 30.7441 45.9379C31.1099 45.5717 31.1099 44.978 30.7441 44.6118L27.4665 41.3346Z" fill="white"/>
<path d="M12.0085 41.3408L8.7309 44.6184C8.36469 44.9846 8.36469 45.5779 8.7309 45.9441C8.914 46.1272 9.15387 46.2188 9.39374 46.2188C9.63361 46.2188 9.87347 46.1272 10.0566 45.9441L13.3342 42.6669C13.7004 42.3007 13.7004 41.707 13.3342 41.3408C12.968 40.9746 12.3747 40.9746 12.0085 41.3408Z" fill="white"/>
<path d="M28.3549 23.4049C28.3549 20.948 26.3565 18.9496 23.8996 18.9496H21.8657C21.3482 18.9496 20.9282 19.3693 20.9282 19.8871V28.1371C20.9282 28.6545 21.3482 29.0746 21.8657 29.0746H23.8996C26.3561 29.0746 28.3549 27.0758 28.3549 24.6189V23.4049ZM26.4799 24.6189C26.4799 26.042 25.3223 27.1996 23.8996 27.1996H22.8032V20.8246H23.8996C25.3223 20.8246 26.4799 21.9818 26.4799 23.4049V24.6189Z" fill="white"/>
<path d="M11.9621 25.481L11.1693 27.8379C11.0041 28.3286 11.2678 28.8603 11.7585 29.0255C12.2499 29.1907 12.7809 28.9266 12.9461 28.4359L13.5313 26.6968H16.1358L16.721 28.4359C16.8525 28.8274 17.2176 29.0746 17.6094 29.0746C17.7087 29.0746 17.8094 29.0588 17.9083 29.0255C18.399 28.8603 18.663 28.3286 18.4979 27.8379L15.722 19.5879C15.5938 19.2063 15.236 18.9496 14.8336 18.9496C14.4311 18.9496 14.0733 19.2063 13.9451 19.5879L11.9628 25.4791C11.9625 25.4799 11.9621 25.4802 11.9621 25.481ZM14.8336 22.8267L15.5048 24.8218H14.1623L14.8336 22.8267Z" fill="white"/>
<path d="M26.2033 32.7122C26.029 32.8865 25.9286 33.1285 25.9286 33.375C25.9286 33.6226 26.029 33.8635 26.2033 34.0378C26.378 34.2122 26.6197 34.3125 26.8661 34.3125C27.113 34.3125 27.3547 34.2122 27.529 34.0378C27.7033 33.8635 27.8036 33.6215 27.8036 33.375C27.8036 33.1285 27.7033 32.8865 27.529 32.7122C27.3547 32.5378 27.113 32.4375 26.8661 32.4375C26.6197 32.4375 26.3776 32.5378 26.2033 32.7122Z" fill="white"/>
</svg>
