<svg width="20" height="20" viewBox="0 0 20 20" fill="none" xmlns="http://www.w3.org/2000/svg">
<path d="M11.5806 13.1093C11.0916 12.7681 10.569 12.4901 10.0224 12.2777C10.7495 11.6168 11.2318 10.6911 11.3157 9.65468C12.4183 8.58031 13.8636 7.99132 15.413 7.99132C16.6226 7.99132 17.7839 8.35555 18.7718 9.04448C19.1258 9.29137 19.6125 9.2047 19.8594 8.8507C20.1062 8.49684 20.0195 8.00994 19.6656 7.7632C19.1766 7.42202 18.6538 7.14415 18.1073 6.9316C18.9096 6.20238 19.414 5.1509 19.414 3.98391C19.414 1.78711 17.6269 0 15.4301 0C13.2334 0 11.4463 1.78711 11.4463 3.98391C11.4463 5.14617 11.9467 6.19384 12.7435 6.92275C12.6344 6.96471 12.5259 7.00911 12.4185 7.05642C11.9296 7.27157 11.47 7.53615 11.0426 7.84682C10.4531 6.38244 9.01805 5.34606 7.34523 5.34606C5.14857 5.34606 3.36131 7.13317 3.36131 9.32982C3.36131 10.4889 3.8589 11.5336 4.65144 12.2623C2.53245 13.0562 0.814308 14.7613 0.114845 16.936C-0.117089 17.6571 0.0057444 18.4219 0.451912 19.0342C0.898079 19.6464 1.58839 19.9975 2.34583 19.9975H9.14195C9.57332 19.9975 9.92305 19.6478 9.92305 19.2163C9.92305 18.7849 9.57332 18.4352 9.14195 18.4352H2.34583C2.0933 18.4352 1.8632 18.3181 1.71442 18.114C1.56565 17.9098 1.52476 17.6549 1.60197 17.4144C2.37406 15.0139 4.7288 13.3374 7.32814 13.3374C8.53755 13.3374 9.69905 13.7016 10.6869 14.3905C11.0408 14.6374 11.5277 14.5506 11.7746 14.1968C12.0213 13.8429 11.9346 13.356 11.5806 13.1093V13.1093ZM15.4301 1.56235C16.7654 1.56235 17.8517 2.64862 17.8517 3.98391C17.8517 5.31905 16.7654 6.40548 15.4301 6.40548C14.095 6.40548 13.0085 5.31905 13.0085 3.98391C13.0085 2.64862 14.095 1.56235 15.4301 1.56235ZM7.34523 6.90825C8.68052 6.90825 9.7668 7.99468 9.7668 9.32982C9.7668 10.6651 8.68052 11.7514 7.34523 11.7514C6.00993 11.7514 4.92366 10.6651 4.92366 9.32982C4.92366 7.99468 6.00993 6.90825 7.34523 6.90825V6.90825ZM20 16.2871C20 16.7184 19.6502 17.0682 19.2187 17.0682H17.0706V19.2163C17.0706 19.6478 16.7208 19.9975 16.2895 19.9975C15.858 19.9975 15.5082 19.6478 15.5082 19.2163V17.0682H13.3601C12.9287 17.0682 12.579 16.7184 12.579 16.2871C12.579 15.8555 12.9287 15.5058 13.3601 15.5058H15.5082V13.3577C15.5082 12.9263 15.858 12.5766 16.2895 12.5766C16.7208 12.5766 17.0706 12.9263 17.0706 13.3577V15.5058H19.2187C19.6502 15.5058 20 15.8555 20 16.2871V16.2871Z" fill="#3F4156"/>
</svg>
