<svg width="20" height="20" viewBox="0 0 20 20" fill="none" xmlns="http://www.w3.org/2000/svg">
<path d="M17.2299 4.78608H12.4438V1.91443C12.4438 0.861494 11.5823 0 10.5294 0H8.61495C7.56201 0 6.70051 0.861494 6.70051 1.91443V4.78608H1.91443C0.861494 4.78608 0 5.64758 0 6.70051V17.2299C0 18.2828 0.861494 19.1443 1.91443 19.1443H17.2299C18.2828 19.1443 19.1443 18.2828 19.1443 17.2299V6.70051C19.1443 5.64758 18.2828 4.78608 17.2299 4.78608ZM6.70051 9.57216C7.495 9.57216 8.13634 10.2135 8.13634 11.008C8.13634 11.8025 7.495 12.4438 6.70051 12.4438C5.90602 12.4438 5.26469 11.8025 5.26469 11.008C5.26469 10.2135 5.90602 9.57216 6.70051 9.57216ZM9.57216 15.3155H3.82886V14.9039C3.82886 14.3295 4.17346 13.8031 4.7095 13.5733C5.32212 13.3053 5.99217 13.1617 6.70051 13.1617C7.40885 13.1617 8.0789 13.3053 8.69152 13.5733C9.21799 13.8031 9.57216 14.32 9.57216 14.9039V15.3155ZM10.5294 6.70051H8.61495V1.91443H10.5294V6.70051ZM14.5975 13.8796H12.2045C11.812 13.8796 11.4866 13.5542 11.4866 13.1617C11.4866 12.7693 11.812 12.4438 12.2045 12.4438H14.5975C14.99 12.4438 15.3155 12.7693 15.3155 13.1617C15.3155 13.5542 14.99 13.8796 14.5975 13.8796ZM14.5975 11.008H12.2045C11.812 11.008 11.4866 10.6825 11.4866 10.2901C11.4866 9.89761 11.812 9.57216 12.2045 9.57216H14.5975C14.99 9.57216 15.3155 9.89761 15.3155 10.2901C15.3155 10.6825 14.99 11.008 14.5975 11.008Z" fill="#3F4156"/>
</svg>
