<svg width="14" height="14" viewBox="0 0 14 14" fill="none" xmlns="http://www.w3.org/2000/svg">
<g opacity="0.9">
<path d="M12.3336 6.83329C11.6669 6.24996 11.1669 5.91662 11.1669 5.33328V4.49994C11.1669 2.1666 9.33355 0.333252 7.0002 0.333252C4.66685 0.333252 2.83351 2.1666 2.83351 4.49994V5.33328C2.83351 5.91662 2.33351 6.24996 1.66684 6.83329C1.00017 7.33329 0.333496 7.8333 0.333496 8.66663C0.333496 11 5.41686 11.1666 7.0002 11.1666C8.58354 11.1666 13.6669 11 13.6669 8.66663C13.6669 7.8333 13.0002 7.33329 12.3336 6.83329Z" fill="white"/>
<path d="M9.41697 11.9166C8.50029 11.9999 7.75029 11.9999 7.00028 11.9999C6.25028 11.9999 5.50027 11.9999 4.5836 11.9166C4.91694 12.9166 5.83361 13.6666 7.00028 13.6666C8.16696 13.6666 9.08363 12.9166 9.41697 11.9166Z" fill="white"/>
</g>
</svg>
