<svg width="16" height="16" viewBox="0 0 16 16" fill="none" xmlns="http://www.w3.org/2000/svg">
<rect x="0.5" y="0.5" width="15" height="15" rx="7.5" fill="#25A5FA" stroke="white"/>
<path fill-rule="evenodd" clip-rule="evenodd" d="M8.50006 4.49981C8.50006 4.22365 8.2762 3.99979 8.00004 3.99979C7.72389 3.99979 7.50002 4.22365 7.50002 4.49981V7.49993H4.49981C4.22365 7.49993 3.99979 7.72379 3.99979 7.99995C3.99979 8.2761 4.22365 8.49996 4.49981 8.49996H7.50002V11.5001C7.50002 11.7762 7.72389 12.0001 8.00004 12.0001C8.2762 12.0001 8.50006 11.7762 8.50006 11.5001V8.49996H11.5001C11.7762 8.49996 12.0001 8.2761 12.0001 7.99995C12.0001 7.72379 11.7762 7.49993 11.5001 7.49993H8.50006V4.49981Z" fill="white"/>
</svg>
