<svg width="21" height="20" viewBox="0 0 21 20" fill="none" xmlns="http://www.w3.org/2000/svg">
<path d="M20.0239 10.2469C20.0239 8.10172 18.2362 6.19487 15.6143 5.12226C14.5417 2.50033 12.6348 0.712646 10.4896 0.712646C8.3444 0.712646 6.43754 2.50033 5.36493 5.12226C2.743 6.19487 0.955322 8.10172 0.955322 10.2469C0.955322 12.3922 2.743 14.299 5.36493 15.3716C6.43754 17.9936 8.3444 19.7812 10.4896 19.7812C12.6348 19.7812 14.5417 17.9936 15.6143 15.3716C18.2362 14.299 20.0239 12.3922 20.0239 10.2469ZM10.4896 3.09622C11.2047 3.09622 11.9198 3.57294 12.5157 4.40719C11.2047 4.28801 9.77454 4.28801 8.46358 4.40719C9.05947 3.57294 9.77454 3.09622 10.4896 3.09622ZM13.7074 13.4648C11.6814 13.9415 9.41701 13.9415 7.39097 13.4648C6.79508 11.4387 6.79508 9.05515 7.27179 7.02912C9.29783 6.5524 11.6814 6.5524 13.7074 7.02912C14.1842 9.05515 14.1842 11.4387 13.7074 13.4648ZM3.3389 10.2469C3.3389 9.53187 3.81561 8.8168 4.64986 8.2209C4.53068 9.53187 4.53068 10.962 4.64986 12.273C3.81561 11.6771 3.3389 10.962 3.3389 10.2469ZM10.4896 17.3977C9.77454 17.3977 9.05947 16.9209 8.46358 16.0867C9.77454 16.2059 11.0855 16.2059 12.3965 16.0867C11.9198 16.9209 11.2047 17.3977 10.4896 17.3977ZM16.3294 12.273C16.4486 10.962 16.4486 9.65105 16.3294 8.34008C17.1636 8.8168 17.6403 9.53187 17.6403 10.2469C17.6403 10.962 17.1636 11.6771 16.3294 12.273Z" fill="#3F4156"/>
<path d="M10.4896 11.4387C11.1478 11.4387 11.6814 10.9052 11.6814 10.247C11.6814 9.58876 11.1478 9.05518 10.4896 9.05518C9.83143 9.05518 9.29785 9.58876 9.29785 10.247C9.29785 10.9052 9.83143 11.4387 10.4896 11.4387Z" fill="#3F4156"/>
</svg>
