<svg width="40" height="40" viewBox="0 0 40 40" fill="none" xmlns="http://www.w3.org/2000/svg">
<circle cx="20" cy="20" r="19.75" fill="white" fill-opacity="0.19" stroke="#E1E1E1" stroke-width="0.5"/>
<path opacity="0.7" d="M24.7782 15.2294C24.4824 14.9336 24.0046 14.9336 23.7088 15.2294L20 18.9306L16.2912 15.2218C15.9954 14.9261 15.5176 14.9261 15.2218 15.2218C14.9261 15.5176 14.9261 15.9954 15.2218 16.2912L18.9306 20L15.2218 23.7088C14.9261 24.0046 14.9261 24.4824 15.2218 24.7782C15.5176 25.0739 15.9954 25.0739 16.2912 24.7782L20 21.0694L23.7088 24.7782C24.0046 25.0739 24.4824 25.0739 24.7782 24.7782C25.0739 24.4824 25.0739 24.0046 24.7782 23.7088L21.0694 20L24.7782 16.2912C25.0664 16.003 25.0664 15.5176 24.7782 15.2294V15.2294Z" fill="black"/>
</svg>
