<svg width="12" height="11" viewBox="0 0 12 11" fill="none" xmlns="http://www.w3.org/2000/svg">
<path opacity="0.5" d="M10.2419 1.77218C9.9972 1.52738 9.70668 1.33318 9.38692 1.20069C9.06716 1.06819 8.72443 1 8.37831 1C8.03218 1 7.68945 1.06819 7.36969 1.20069C7.04993 1.33318 6.75941 1.52738 6.51472 1.77218L6.00691 2.27999L5.49909 1.77218C5.00484 1.27792 4.33449 1.00026 3.63551 1.00026C2.93653 1.00026 2.26618 1.27792 1.77192 1.77218C1.27767 2.26643 1 2.93678 1 3.63576C1 4.33474 1.27767 5.00509 1.77192 5.49935L2.27974 6.00716L6.00691 9.73433L9.73408 6.00716L10.2419 5.49935C10.4867 5.25466 10.6809 4.96414 10.8134 4.64438C10.9459 4.32462 11.0141 3.98188 11.0141 3.63576C11.0141 3.28964 10.9459 2.94691 10.8134 2.62715C10.6809 2.30739 10.4867 2.01687 10.2419 1.77218V1.77218Z" stroke="#F78000" stroke-width="0.935821" stroke-linecap="round" stroke-linejoin="round"/>
</svg>
