<svg width="11" height="9" viewBox="0 0 11 9" fill="none" xmlns="http://www.w3.org/2000/svg">
<path d="M9.24189 0.772178C8.9972 0.527375 8.70668 0.33318 8.38692 0.200687C8.06716 0.0681943 7.72443 0 7.37831 0C7.03218 0 6.68945 0.0681943 6.36969 0.200687C6.04993 0.33318 5.75941 0.527375 5.51472 0.772178L5.00691 1.27999L4.49909 0.772178C4.00484 0.277925 3.33449 0.000256189 2.63551 0.000256194C1.93653 0.000256199 1.26618 0.277925 0.771922 0.772178C0.277669 1.26643 5.20781e-09 1.93678 0 2.63576C-5.20781e-09 3.33474 0.277669 4.00509 0.771922 4.49935L1.27974 5.00716L5.00691 8.73433L8.73407 5.00716L9.24189 4.49935C9.48669 4.25466 9.68089 3.96414 9.81338 3.64438C9.94587 3.32462 10.0141 2.98188 10.0141 2.63576C10.0141 2.28964 9.94587 1.94691 9.81338 1.62715C9.68089 1.30739 9.48669 1.01687 9.24189 0.772178V0.772178Z" fill="#F78000"/>
<rect x="2.29932" y="1.72485" width="5.74885" height="5.74885" rx="2.87442" fill="#F78000"/>
</svg>
