<svg width="9" height="8" viewBox="0 0 9 8" fill="none" xmlns="http://www.w3.org/2000/svg">
<path d="M7.44901 1.12231C7.27448 0.9477 7.06725 0.809185 6.83917 0.71468C6.61109 0.620175 6.36663 0.571533 6.11975 0.571533C5.87286 0.571533 5.6284 0.620175 5.40032 0.71468C5.17224 0.809185 4.96502 0.9477 4.79049 1.12231L4.42827 1.48453L4.06606 1.12231C3.71351 0.769772 3.23536 0.571716 2.73679 0.571716C2.23822 0.571716 1.76007 0.769772 1.40753 1.12231C1.05499 1.47486 0.856934 1.95301 0.856934 2.45158C0.856934 2.95015 1.05499 3.42829 1.40753 3.78084L1.76975 4.14305L4.42827 6.80157L7.08679 4.14305L7.44901 3.78084C7.62362 3.60631 7.76214 3.39908 7.85664 3.171C7.95115 2.94292 7.99979 2.69846 7.99979 2.45158C7.99979 2.20469 7.95115 1.96023 7.85664 1.73215C7.76214 1.50407 7.62362 1.29685 7.44901 1.12231V1.12231Z" stroke="white" stroke-width="1.13298" stroke-linecap="round" stroke-linejoin="round"/>
</svg>
