<svg width="21" height="20" viewBox="0 0 21 20" fill="none" xmlns="http://www.w3.org/2000/svg">
<path d="M19.0552 1.35652C18.4902 0.792126 16.8861 0.378906 14.8583 0.378906C11.751 0.378906 7.64484 1.34645 4.78973 4.19867C0.0581188 8.93558 0.502023 17.0387 1.92453 18.4699C2.4895 19.0343 4.09361 19.4475 6.12144 19.4475C9.22877 19.4475 13.3349 18.48 16.19 15.6277C20.9216 10.8908 20.4777 2.78768 19.0552 1.35652ZM6.21224 5.6399C8.87567 2.97917 12.6186 2.4954 14.3135 2.42485C12.2453 3.37223 9.81392 4.89409 7.64484 7.07105C5.46568 9.24802 3.94228 11.687 2.99394 13.7531C3.08474 11.2536 3.87166 7.96804 6.21224 5.6399ZM14.7675 14.1865C12.1041 16.8472 8.36114 17.331 6.66623 17.4016C8.73442 16.4542 11.1658 14.9323 13.3349 12.7553C15.514 10.5784 17.0374 8.13938 17.9959 6.07328C17.895 8.57276 17.1081 11.8584 14.7675 14.1865Z" fill="#3F4156"/>
</svg>
