<svg width="21" height="20" viewBox="0 0 21 20" fill="none" xmlns="http://www.w3.org/2000/svg">
<path d="M17.6398 5.74922H10.4891V0.452393H5.72198C3.08813 0.452393 0.954834 2.34866 0.954834 4.68986V11.0461C0.954834 12.2114 2.02744 13.1648 3.33841 13.1648H5.72198V16.2687C4.99499 15.8979 4.33951 15.4424 3.75553 14.9233L2.0632 16.4276C4.22033 18.3345 7.1998 19.521 10.4891 19.521C13.7785 19.521 16.7579 18.3345 18.9151 16.417L17.2227 14.9127C16.6387 15.4318 15.9713 15.8874 15.2563 16.2581V13.1648H17.6398C18.9508 13.1648 20.0234 12.2114 20.0234 11.0461V7.86795C20.0234 6.70265 18.9508 5.74922 17.6398 5.74922ZM12.8727 17.1374C12.11 17.3069 11.3115 17.4022 10.4891 17.4022C9.66679 17.4022 8.8683 17.3069 8.10555 17.1374V13.1648H12.8727V17.1374ZM17.6398 11.0461H3.33841V4.68986C3.33841 3.52455 4.41102 2.57112 5.72198 2.57112H8.10555V7.86795H17.6398V11.0461Z" fill="#3F4156"/>
</svg>
