<svg width="18" height="17" viewBox="0 0 18 17" fill="none" xmlns="http://www.w3.org/2000/svg">
<path d="M5.19898 13.7036L8.51401 9.14672C8.83671 8.69689 9.47233 8.60888 9.9026 8.95114L17.9115 15.1705V15.6594C17.9115 16.1972 17.4714 16.6373 16.9336 16.6373H1.28745C0.749618 16.6373 0.30957 16.1972 0.30957 15.6594V10.0659C0.524705 10.0659 0.739839 10.1344 0.915857 10.2811L5.19898 13.7036ZM0.30957 7.83635C0.739839 7.83635 1.17011 7.98303 1.53192 8.26662L4.82739 10.8971L7.53612 7.17139C8.18153 6.28152 9.443 6.09572 10.3231 6.78024L17.9115 12.6964V4.9027C17.9115 4.36487 17.4714 3.92482 16.9336 3.92482H13.9999L9.91238 0.658693C9.47233 0.306655 8.83671 0.394664 8.50423 0.854269L4.2211 6.85847L0.8963 4.36487C0.720281 4.23774 0.514926 4.16929 0.30957 4.16929V7.83635Z" fill="#3F4156"/>
</svg>
