<svg width="21" height="20" viewBox="0 0 21 20" fill="none" xmlns="http://www.w3.org/2000/svg">
<path d="M10.4891 0.754395C5.2262 0.754395 0.954834 5.02576 0.954834 10.2887C0.954834 15.5516 5.2262 19.823 10.4891 19.823C15.7521 19.823 20.0234 15.5516 20.0234 10.2887C20.0234 5.02576 15.7521 0.754395 10.4891 0.754395ZM9.5357 17.8494C5.76965 17.3822 2.86169 14.1787 2.86169 10.2887C2.86169 9.69756 2.93797 9.13504 3.06191 8.58205L7.62884 13.149V14.1024C7.62884 15.1512 8.48693 16.0093 9.5357 16.0093V17.8494ZM16.1144 15.4277C15.8665 14.6554 15.1609 14.1024 14.3028 14.1024H13.3494V11.2421C13.3494 10.7177 12.9204 10.2887 12.396 10.2887H6.67541V8.38183H8.58227C9.10666 8.38183 9.5357 7.95279 9.5357 7.4284V5.52154H11.4426C12.4913 5.52154 13.3494 4.66346 13.3494 3.61468V3.22378C16.143 4.35836 18.1166 7.0947 18.1166 10.2887C18.1166 12.2718 17.3538 14.0738 16.1144 15.4277Z" fill="#3F4156"/>
</svg>
