<svg width="14" height="14" viewBox="0 0 14 14" fill="none" xmlns="http://www.w3.org/2000/svg">
<path d="M7 0C5.075 0 3.5 1.575 3.5 3.5V6.125C3.5 8.05 5.075 9.625 7 9.625C8.925 9.625 10.5 8.05 10.5 6.125V3.5C10.5 1.575 8.925 0 7 0Z" fill="white" fill-opacity="0.9"/>
<path d="M11.55 8.6625C10.675 10.2375 8.925 11.375 7 11.375C5.075 11.375 3.32499 10.325 2.44999 8.6625C0.962489 9.625 0 11.2875 0 13.125C0 13.65 0.35 14 0.875 14H13.125C13.65 14 14 13.65 14 13.125C14 11.2875 13.0375 9.625 11.55 8.6625Z" fill="white" fill-opacity="0.9"/>
</svg>
