<svg width="30" height="30" viewBox="0 0 30 30" fill="none" xmlns="http://www.w3.org/2000/svg">
<path d="M3.17529 11.245H11.2161V3.20435H3.17529V11.245ZM4.93768 4.96674H9.45375V9.4828H4.93768V4.96674Z" fill="#5A4870"/>
<path d="M6.11273 6.1416H8.27864V8.30774H6.11273V6.1416Z" fill="#5A4870"/>
<path d="M1.79149 1.76239H5.5804V0H0.0288696V5.2977H1.79149V1.76239Z" fill="#5A4870"/>
<path d="M6.1416 21.7216H8.30774V23.8877H6.1416V21.7216Z" fill="#5A4870"/>
<path d="M1.76239 24.4199H0V29.9714H5.2977V28.2088H1.76239V24.4199Z" fill="#5A4870"/>
<path d="M28.2305 28.2088H24.6949V29.9714H29.9929V24.4199H28.2305V28.2088Z" fill="#5A4870"/>
<path d="M26.8535 3.20435H18.8129V11.245H26.8535V3.20435ZM25.0912 9.4828H20.5753V4.96674H25.0912V9.4828Z" fill="#5A4870"/>
<path d="M21.7502 6.1416H23.9163V8.30774H21.7502V6.1416Z" fill="#5A4870"/>
<path d="M24.4487 0V1.76239H28.2376V5.2977H30V0H24.4487Z" fill="#5A4870"/>
<path d="M13.3532 25.0626H16.4223V26.825H13.3532V25.0626Z" fill="#5A4870"/>
<path d="M16.4222 23.2999H23.6149V25.0623H16.4222V23.2999Z" fill="#5A4870"/>
<path d="M25.3056 23.2857V21.5256H27.0646V18.0867H25.3299V16.4225H23.5672V19.7905H16.4222V21.5529H23.6002V23.2857H25.3056ZM25.3022 21.5233H23.608V19.8491H25.3022V21.5233Z" fill="#5A4870"/>
<path d="M16.4181 21.5234H14.713V19.7905H13.0073V23.2858H16.4181V21.5234Z" fill="#5A4870"/>
<path d="M13.0074 19.766V18.0167H14.713V19.766H16.4182V18.0034H14.7414V16.3014H12.979V18.0034H11.1257V18.7841H3.20435V26.825H11.245V19.766H13.0074ZM9.48257 25.0626H4.96674V20.5465H9.4828V25.0626H9.48257Z" fill="#5A4870"/>
<path d="M7.08961 16.0661H11.3052V12.4617H9.54277V14.3037H7.07817V16.0627H5.38422V17.8253H7.08961V16.0661Z" fill="#5A4870"/>
<path d="M23.6149 25.0626H26.8535V26.825H23.6149V25.0626Z" fill="#5A4870"/>
<path d="M3.08948 12.5377H7.08163V14.3001H3.08948V12.5377Z" fill="#5A4870"/>
<path d="M23.2338 14.4212H21.5442V16.1838H23.2498V14.4592H26.8936V12.6965H23.2338V14.4212Z" fill="#5A4870"/>
<path d="M12.979 6.00977H14.7414V7.72501H12.979V6.00977Z" fill="#5A4870"/>
<path d="M14.7414 12.8826H18.0902V16.2083H16.4134V17.9706H18.1188V16.214H19.8391V17.9706H21.5442V16.2083H19.8528V12.8757H18.1339V5.86234H16.4182V4.09995H14.7414V2.88733H12.979V4.29449H14.713V5.86234H16.3715V11.1202H14.7414V9.44022H12.979V11.1557H14.7114V12.8709H12.979V14.5862H14.7414V12.8826Z" fill="#5A4870"/>
<circle cx="15.1072" cy="15.1072" r="5.89286" fill="white"/>
<circle cx="15.1072" cy="15.1071" r="5.25" fill="#F78000"/>
<path d="M13.1572 13.0714V14.82C13.1572 15.02 13.2014 15.1729 13.29 15.2786C13.3814 15.3843 13.5129 15.4372 13.6843 15.4372C13.8557 15.4372 13.9857 15.3843 14.0743 15.2786C14.1657 15.1729 14.2114 15.02 14.2114 14.82V13.0714H14.9443V14.82C14.9443 15.1057 14.8886 15.3472 14.7772 15.5443C14.6657 15.7386 14.5129 15.8857 14.3186 15.9857C14.1272 16.0829 13.91 16.1314 13.6672 16.1314C13.4243 16.1314 13.21 16.0829 13.0243 15.9857C12.8386 15.8886 12.6929 15.7414 12.5872 15.5443C12.4814 15.3472 12.4286 15.1057 12.4286 14.82V13.0714H13.1572Z" fill="white"/>
<path d="M16.9254 13.68C17.1226 13.68 17.2983 13.73 17.4526 13.83C17.6097 13.9272 17.7326 14.0686 17.8212 14.2543C17.9126 14.4372 17.9583 14.6543 17.9583 14.9057C17.9583 15.1543 17.9126 15.3714 17.8212 15.5572C17.7326 15.7429 17.6097 15.8857 17.4526 15.9857C17.2983 16.0829 17.1226 16.1314 16.9254 16.1314C16.7426 16.1314 16.5854 16.09 16.454 16.0072C16.3226 15.9243 16.2269 15.8114 16.1669 15.6686V17.2414H15.434V13.71H16.1669V14.1429C16.2269 14 16.3226 13.8872 16.454 13.8043C16.5854 13.7214 16.7426 13.68 16.9254 13.68ZM16.6897 14.3229C16.5354 14.3229 16.4083 14.3757 16.3083 14.4814C16.2112 14.5843 16.1626 14.7257 16.1626 14.9057C16.1626 15.0829 16.2112 15.2243 16.3083 15.33C16.4083 15.4357 16.5354 15.4886 16.6897 15.4886C16.8469 15.4886 16.9726 15.4372 17.0669 15.3343C17.164 15.2314 17.2126 15.0886 17.2126 14.9057C17.2126 14.7229 17.164 14.58 17.0669 14.4772C16.9726 14.3743 16.8469 14.3229 16.6897 14.3229Z" fill="white"/>
</svg>
