<svg width="160" height="160" viewBox="0 0 160 160" fill="none" xmlns="http://www.w3.org/2000/svg">
<path d="M16.9348 59.9731H59.8193V17.0898H16.9348V59.9731ZM26.3342 26.4893H50.4199V50.575H26.3342V26.4893Z" fill="#5A4870"/>
<path d="M32.6016 32.755H44.1531V44.3078H32.6016V32.755Z" fill="#5A4870"/>
<path d="M9.55469 9.39941H29.7622V0H0.154053V28.2544H9.55469V9.39941Z" fill="#5A4870"/>
<path d="M32.7551 115.848H44.3079V127.401H32.7551V115.848Z" fill="#5A4870"/>
<path d="M9.39941 130.239H0V159.848H28.2544V150.447H9.39941V130.239Z" fill="#5A4870"/>
<path d="M150.563 150.447H131.707V159.848H159.962V130.239H150.563V150.447Z" fill="#5A4870"/>
<path d="M143.219 17.0898H100.336V59.9731H143.219V17.0898ZM133.82 50.575H109.735V26.4893H133.82V50.575Z" fill="#5A4870"/>
<path d="M116.001 32.755H127.554V44.3078H116.001V32.755Z" fill="#5A4870"/>
<path d="M130.393 0V9.39941H150.6V28.2544H160V0H130.393Z" fill="#5A4870"/>
<path d="M71.217 133.667H87.5855V143.066H71.217V133.667Z" fill="#5A4870"/>
<path d="M87.5854 124.266H125.946V133.666H87.5854V124.266Z" fill="#5A4870"/>
<path d="M134.963 124.191V114.803H144.344V96.4624H135.093V87.5867H125.692V105.549H87.5854V114.949H125.868V124.191H134.963ZM134.945 114.791H125.909V105.862H134.945V114.791Z" fill="#5A4870"/>
<path d="M87.5637 114.791H78.4695V105.549H69.3728V124.191H87.5637V114.791Z" fill="#5A4870"/>
<path d="M69.3726 105.419V96.0889H78.4692V105.419H87.5635V96.0181H78.6206V86.9409H69.2212V96.0181H59.3372V100.182H17.0898V143.066H59.9731V105.419H69.3726ZM50.5737 133.667H26.4893V109.581H50.575V133.667H50.5737Z" fill="#5A4870"/>
<path d="M37.8114 85.686H60.2943V66.4623H50.8949V76.2866H37.7504V85.6677H28.7159V95.0683H37.8114V85.686Z" fill="#5A4870"/>
<path d="M125.946 133.667H143.219V143.066H125.946V133.667Z" fill="#5A4870"/>
<path d="M16.4771 66.8677H37.7686V76.2671H16.4771V66.8677Z" fill="#5A4870"/>
<path d="M123.914 76.9128H114.902V86.3135H123.999V77.1155H143.433V67.7148H123.914V76.9128Z" fill="#5A4870"/>
<path d="M69.2209 32.0519H78.6204V41.1998H69.2209V32.0519Z" fill="#5A4870"/>
<path d="M78.6204 68.7074H96.4805V86.4442H87.5376V95.8436H96.6331V86.4747H105.808V95.8436H114.902V86.4442H105.881V68.6708H96.7136V31.266H87.5632V21.8666H78.6204V15.3993H69.2209V22.9042H78.469V31.266H87.3142V59.308H78.6204V50.348H69.2209V59.4972H78.4604V68.6451H69.2209V77.7931H78.6204V68.7074Z" fill="#5A4870"/>
<circle cx="80.5714" cy="80.5714" r="31.4286" fill="white"/>
<circle cx="80.5714" cy="80.5714" r="28" fill="#F78000"/>
<path d="M70.1715 69.7143V79.04C70.1715 80.1067 70.4077 80.9219 70.8801 81.4857C71.3677 82.0495 72.0686 82.3314 72.9829 82.3314C73.8972 82.3314 74.5905 82.0495 75.0629 81.4857C75.5505 80.9219 75.7943 80.1067 75.7943 79.04V69.7143H79.7029V79.04C79.7029 80.5638 79.4058 81.8514 78.8115 82.9029C78.2172 83.9391 77.402 84.7238 76.3658 85.2571C75.3448 85.7752 74.1867 86.0343 72.8915 86.0343C71.5962 86.0343 70.4534 85.7752 69.4629 85.2571C68.4724 84.7391 67.6953 83.9543 67.1315 82.9029C66.5677 81.8514 66.2858 80.5638 66.2858 79.04V69.7143H70.1715Z" fill="white"/>
<path d="M90.269 72.96C91.3204 72.96 92.2576 73.2267 93.0804 73.76C93.9185 74.2781 94.5737 75.0324 95.0461 76.0229C95.5337 76.9981 95.7775 78.1562 95.7775 79.4972C95.7775 80.8229 95.5337 81.981 95.0461 82.9714C94.5737 83.9619 93.9185 84.7238 93.0804 85.2571C92.2576 85.7752 91.3204 86.0343 90.269 86.0343C89.2937 86.0343 88.4556 85.8133 87.7547 85.3714C87.0537 84.9295 86.5433 84.3276 86.2233 83.5657V91.9543H82.3147V73.12H86.2233V75.4286C86.5433 74.6667 87.0537 74.0648 87.7547 73.6229C88.4556 73.181 89.2937 72.96 90.269 72.96ZM89.0118 76.3886C88.189 76.3886 87.5109 76.6705 86.9776 77.2343C86.4595 77.7829 86.2004 78.5372 86.2004 79.4972C86.2004 80.4419 86.4595 81.1962 86.9776 81.76C87.5109 82.3238 88.189 82.6057 89.0118 82.6057C89.8499 82.6057 90.5204 82.3314 91.0233 81.7829C91.5414 81.2343 91.8004 80.4724 91.8004 79.4972C91.8004 78.5219 91.5414 77.76 91.0233 77.2114C90.5204 76.6629 89.8499 76.3886 89.0118 76.3886Z" fill="white"/>
</svg>
