<svg width="14" height="15" viewBox="0 0 14 15" fill="none" xmlns="http://www.w3.org/2000/svg">
<path d="M11.1125 10.0803C11.9 9.00982 12.3375 7.76093 12.3375 6.33364C12.3375 2.8546 9.625 0 6.2125 0C2.8 0 0 2.8546 0 6.33364C0 9.81268 2.8 12.6673 6.2125 12.6673C7.6125 12.6673 8.925 12.2212 9.8875 11.4184L12.5125 14.0946C12.6875 14.273 12.95 14.3622 13.125 14.3622C13.3 14.3622 13.5625 14.273 13.7375 14.0946C14.0875 13.7377 14.0875 13.2025 13.7375 12.8457L11.1125 10.0803ZM6.2125 10.7939C3.7625 10.7939 1.75 8.83141 1.75 6.33364C1.75 3.83586 3.7625 1.78412 6.2125 1.78412C8.6625 1.78412 10.675 3.83586 10.675 6.33364C10.675 8.83141 8.6625 10.7939 6.2125 10.7939Z" fill="white"/>
</svg>
