<svg width="18" height="18" viewBox="0 0 18 18" fill="none" xmlns="http://www.w3.org/2000/svg">
<path d="M16.2848 0.0279011L0.37762 5.22574C-0.0716209 5.37254 -0.136587 5.9836 0.272269 6.22131L6.28375 9.71688C6.4734 9.82717 6.71043 9.81387 6.88651 9.68308L8.57637 8.42813L7.32142 10.118C7.19066 10.2941 7.17736 10.5312 7.28761 10.7208L10.7832 16.7323C11.0212 17.1415 11.6321 17.0758 11.7788 16.6269L16.9766 0.719726C17.1161 0.292598 16.7098 -0.111081 16.2848 0.0279011V0.0279011ZM11.1161 15.1225L8.41768 10.4818L11.6716 6.1003C11.8337 5.88191 11.8114 5.57772 11.619 5.3854C11.4267 5.19307 11.1225 5.17072 10.9041 5.33288L6.52263 8.58679L1.88198 5.88829L15.5981 1.40641L11.1161 15.1225ZM5.75919 12.021L2.11706 15.6631C1.90286 15.8772 1.55554 15.8773 1.34134 15.6631C1.12711 15.4489 1.12711 15.1016 1.34134 14.8874L4.98347 11.2453C5.19774 11.0311 5.54506 11.031 5.75919 11.2453C5.97342 11.4595 5.97342 11.8068 5.75919 12.021V12.021ZM0.947639 12.1588C0.733406 11.9446 0.733406 11.5973 0.947639 11.3831L2.38477 9.94592C2.59897 9.73169 2.94629 9.73169 3.16049 9.94592C3.37472 10.1602 3.37472 10.5074 3.16049 10.7216L1.72335 12.1588C1.50919 12.373 1.16184 12.373 0.947639 12.1588V12.1588ZM7.05854 13.8439C7.27277 14.0581 7.27277 14.4055 7.05854 14.6197L5.62137 16.0568C5.51427 16.1639 5.37388 16.2175 5.23353 16.2175C4.74922 16.2175 4.49916 15.6276 4.84569 15.2811L6.28286 13.8439C6.49702 13.6297 6.84434 13.6297 7.05854 13.8439V13.8439Z" fill="white"/>
</svg>
