<svg width="20" height="20" viewBox="0 0 20 20" fill="none" xmlns="http://www.w3.org/2000/svg">
<path d="M18.3848 0.311279L13.5987 0.311279C12.9406 0.311279 12.4022 0.849713 12.4022 1.5078C12.4022 2.16589 12.9406 2.70432 13.5987 2.70432H15.4892L10.739 7.45451C9.68611 6.72463 8.40584 6.29388 7.01787 6.29388C3.38045 6.29388 0.437012 9.23732 0.437012 12.8747C0.437012 16.5122 3.38045 19.4556 7.01787 19.4556C10.6553 19.4556 13.5987 16.5122 13.5987 12.8747C13.5987 11.4868 13.168 10.2065 12.4381 9.1416L17.1883 4.40338V6.29388C17.1883 6.95197 17.7267 7.4904 18.3848 7.4904C19.0429 7.4904 19.5813 6.95197 19.5813 6.29388V1.5078C19.5813 0.849713 19.0429 0.311279 18.3848 0.311279ZM7.01787 17.0626C4.70859 17.0626 2.83005 15.184 2.83005 12.8747C2.83005 10.5655 4.70859 8.68692 7.01787 8.68692C9.32716 8.68692 11.2057 10.5655 11.2057 12.8747C11.2057 15.184 9.32716 17.0626 7.01787 17.0626Z" fill="#3F4156"/>
</svg>
