<svg width="108" height="108" viewBox="0 0 108 108" fill="none" xmlns="http://www.w3.org/2000/svg">
<g clip-path="url(#clip0_56_113)">
<path d="M11.4059 40.3931H40.2895V11.5103H11.4059V40.3931ZM17.7366 17.841H33.9588V34.0632H17.7366V17.841Z" fill="#5A4870"/>
<path d="M21.9576 22.0612H29.7378V29.8422H21.9576V22.0612Z" fill="#5A4870"/>
<path d="M6.43515 6.33069H20.0453V0H0.103638V19.0299H6.43515V6.33069Z" fill="#5A4870"/>
<path d="M22.0613 78.0262H29.8423V85.8072H22.0613V78.0262Z" fill="#5A4870"/>
<path d="M6.33069 87.7187H0V107.66H19.0299V101.329H6.33069V87.7187Z" fill="#5A4870"/>
<path d="M101.407 101.329H88.7069V107.66H107.738V87.7187H101.407V101.329Z" fill="#5A4870"/>
<path d="M96.4609 11.5103H67.5781V40.3931H96.4609V11.5103ZM90.1302 34.0632H73.9088V17.841H90.1302V34.0632Z" fill="#5A4870"/>
<path d="M78.1289 22.0612H85.9099V29.8422H78.1289V22.0612Z" fill="#5A4870"/>
<path d="M87.8223 0V6.33069H101.432V19.0299H107.763V0H87.8223Z" fill="#5A4870"/>
<path d="M47.9661 90.0273H58.9905V96.358H47.9661V90.0273Z" fill="#5A4870"/>
<path d="M58.9905 83.6959H84.8271V90.0266H58.9905V83.6959Z" fill="#5A4870"/>
<path d="M90.9004 83.6449V77.3224H97.2188V64.9693H90.9876V58.9913H84.6561V71.0895H58.9905V77.4202H84.7745V83.6449H90.9004ZM90.8881 77.3142H84.8024V71.3H90.8881V77.3142Z" fill="#5A4870"/>
<path d="M58.9757 77.3142H52.8505V71.0895H46.7238V83.6449H58.9757V77.3142Z" fill="#5A4870"/>
<path d="M46.7238 71.0015V64.7177H52.8506V71.0015H58.9758V64.67H52.9526V58.5564H46.6219V64.67H39.9648V67.4744H11.5104V96.358H40.3931V71.0015H46.7238ZM34.0624 90.0273H17.8411V73.8051H34.0633V90.0273H34.0624Z" fill="#5A4870"/>
<path d="M25.4667 57.7112H40.6094V44.7637H34.2787V51.3805H25.4256V57.6989H19.3407V64.0304H25.4667V57.7112Z" fill="#5A4870"/>
<path d="M84.8271 90.0273H96.4608V96.358H84.8271V90.0273Z" fill="#5A4870"/>
<path d="M11.0977 45.0367H25.4379V51.3674H11.0977V45.0367Z" fill="#5A4870"/>
<path d="M83.4583 51.8023H77.389V58.1338H83.5158V51.9388H96.6047V45.6073H83.4583V51.8023Z" fill="#5A4870"/>
<path d="M46.6218 21.5876H52.9525V27.749H46.6218V21.5876Z" fill="#5A4870"/>
<path d="M52.9525 46.2757H64.9817V58.2218H58.9585V64.5525H65.0844V58.2424H71.2638V64.5525H77.389V58.2218H71.3132V46.251H65.1387V21.0582H58.9757V14.7275H52.9525V10.3716H46.6218V15.4263H52.8506V21.0582H58.808V39.945H52.9525V33.9103H46.6218V40.0725H52.8448V46.2338H46.6218V52.3951H52.9525V46.2757Z" fill="#5A4870"/>
<circle cx="54.2664" cy="54.2665" r="21.1678" fill="white"/>
<circle cx="54.2664" cy="54.2664" r="18.8586" fill="#F78000"/>
<path d="M47.2618 46.954V53.235C47.2618 53.9535 47.4208 54.5025 47.739 54.8823C48.0674 55.262 48.5395 55.4519 49.1553 55.4519C49.7711 55.4519 50.2381 55.262 50.5562 54.8823C50.8847 54.5025 51.0489 53.9535 51.0489 53.235V46.954H53.6814V53.235C53.6814 54.2613 53.4812 55.1286 53.081 55.8367C52.6807 56.5346 52.1316 57.0632 51.4337 57.4224C50.7461 57.7713 49.9661 57.9458 49.0937 57.9458C48.2214 57.9458 47.4516 57.7713 46.7845 57.4224C46.1174 57.0735 45.594 56.5449 45.2143 55.8367C44.8345 55.1286 44.6447 54.2613 44.6447 53.235V46.954H47.2618Z" fill="white"/>
<path d="M60.7978 49.14C61.506 49.14 62.1372 49.3196 62.6914 49.6788C63.2559 50.0278 63.6972 50.5358 64.0153 51.2029C64.3437 51.8598 64.508 52.6398 64.508 53.5429C64.508 54.4358 64.3437 55.2158 64.0153 55.8829C63.6972 56.55 63.2559 57.0632 62.6914 57.4224C62.1372 57.7713 61.506 57.9458 60.7978 57.9458C60.141 57.9458 59.5765 57.797 59.1044 57.4994C58.6323 57.2017 58.2885 56.7963 58.073 56.2832V61.9331H55.4405V49.2478H58.073V50.8027C58.2885 50.2895 58.6323 49.8841 59.1044 49.5865C59.5765 49.2888 60.141 49.14 60.7978 49.14ZM59.9511 51.4492C59.3969 51.4492 58.9402 51.6391 58.581 52.0188C58.232 52.3883 58.0576 52.8963 58.0576 53.5429C58.0576 54.1792 58.232 54.6873 58.581 55.067C58.9402 55.4467 59.3969 55.6366 59.9511 55.6366C60.5156 55.6366 60.9672 55.4519 61.3059 55.0824C61.6548 54.7129 61.8293 54.1998 61.8293 53.5429C61.8293 52.8861 61.6548 52.3729 61.3059 52.0035C60.9672 51.634 60.5156 51.4492 59.9511 51.4492Z" fill="white"/>
</g>
<defs>
<clipPath id="clip0_56_113">
<rect width="107.763" height="107.763" fill="white"/>
</clipPath>
</defs>
</svg>
