<svg width="40" height="40" viewBox="0 0 40 40" fill="none" xmlns="http://www.w3.org/2000/svg">
<circle cx="20" cy="20" r="20" fill="#25A5FA"/>
<path d="M23.2143 18.5714C24.7929 18.5714 26 17.3643 26 15.7857C26 14.2071 24.7929 13 23.2143 13C21.6357 13 20.4286 14.2071 20.4286 15.7857C20.4286 15.9714 20.4286 16.1571 20.5214 16.3429L17.55 18.2C17.0857 17.8286 16.4357 17.55 15.7857 17.55C14.2071 17.55 13 18.7571 13 20.3357C13 21.9143 14.2071 23.1214 15.7857 23.1214C16.4357 23.1214 16.9929 22.8429 17.55 22.4714L20.5214 24.3286C20.5214 24.7 20.4286 24.8857 20.4286 25.0714C20.4286 26.65 21.6357 27.8571 23.2143 27.8571C24.7929 27.8571 26 26.65 26 25.0714C26 23.4929 24.7929 22.2857 23.2143 22.2857C22.5643 22.2857 22.0071 22.5643 21.45 22.9357L18.4786 21.0786C18.5714 20.8 18.5714 20.6143 18.5714 20.4286C18.5714 20.2429 18.5714 20.0571 18.5714 19.8714L21.5429 18.0143C22.0071 18.2929 22.5643 18.5714 23.2143 18.5714Z" fill="white"/>
</svg>
